<svg xmlns="http://www.w3.org/2000/svg"><defs><clipPath id="a"><path data-name="Path 14474" d="M-21292.123-3066.339v-8.175h-8.18v16h16v-7.824h-7.82" transform="translate(21482 7432)" fill="none"/></clipPath></defs><symbol id="arrow_left"><path data-name="arrow l" d="M.511 16.5L16.5.5.511 16.5.5 16.486l.011.014-.011.01.011-.01 15.989 16z" fill="none" stroke="#bbb" stroke-linecap="round" stroke-linejoin="round"/></symbol><symbol id="arrow_right"><path data-name="arrow r" d="M16.489 16.504L.5.504l15.989 16 .011-.014-.011.014.011.01-.011-.01-15.989 16z" fill="none" stroke="#bbb" stroke-linecap="round" stroke-linejoin="round"/></symbol><symbol id="check_blue"><path d="M0 7.497l1.494-1.512L4.5 8.997l9-9L15 1.491 4.5 11.997z" fill="#000bb3"/></symbol><symbol id="check_grey"><path d="M0 7.497l1.494-1.512L4.5 8.997l9-9L15 1.491 4.5 11.997z" fill="#bbb"/></symbol><symbol id="check_white"><path d="M0 7.497l1.494-1.512L4.5 8.997l9-9L15 1.491 4.5 11.997z" fill="#fff"/></symbol><symbol id="compas"><g data-name="South North West East"><g data-name="Group 136"><g data-name="Group 132"><path data-name="Path 14043" d="M36.084 34.71l16.109-22.409-15.103 26.16-1.006-3.75" fill="#ebebeb"/><path data-name="Path 14044" d="M40.84 37.456l11.353-25.155-15.103 26.16 3.75-1.005" fill="#bbb"/></g><g data-name="Group 134"><path data-name="Path 14043" d="M40.604 37.17L63.012 53.28l-26.16-15.103 3.752-1.006" fill="#ebebeb"/><path data-name="Path 14044" d="M37.858 41.927l25.154 11.352-26.16-15.103 1.006 3.75" fill="#bbb"/></g><g data-name="Group 135"><path data-name="Path 14043" d="M36.45 34.772L11.296 23.421l26.16 15.103-1.006-3.752" fill="#ebebeb"/><path data-name="Path 14044" d="M33.704 39.529L11.296 23.42l26.16 15.103-3.752 1.005" fill="#bbb"/></g><g data-name="Group 133"><path data-name="Path 14043" d="M33.467 39.244L22.115 64.398l15.103-26.16-3.751 1.006" fill="#ebebeb"/><path data-name="Path 14044" d="M38.223 41.99L22.115 64.398l15.103-26.16 1.005 3.752" fill="#bbb"/></g></g><text transform="rotate(30 8.894 97.833)" fill="#707070" font-size="11" font-family="HelveticaNeue, Helvetica Neue"><tspan x="0" y="0">S</tspan></text><text transform="rotate(30 -38.599 12.344)" fill="#707070" font-size="11" font-family="HelveticaNeue, Helvetica Neue"><tspan x="0" y="0">W</tspan></text><text transform="rotate(30 -125.354 61.438)" fill="#707070" font-size="11" font-family="HelveticaNeue, Helvetica Neue"><tspan x="0" y="0">N</tspan></text><text transform="rotate(30 -74.961 142.6)" fill="#707070" font-size="11" font-family="HelveticaNeue, Helvetica Neue"><tspan x="0" y="0">E</tspan></text></g></symbol><symbol id="doc"><path d="M7.5 0h-6A1.551 1.551 0 00.008 1.6L0 14.4A1.551 1.551 0 001.493 16H10.5a1.557 1.557 0 001.5-1.6V4.8zM9 12.8H3v-1.6h6zm0-3.2H3V8h6zm-2.25-4V1.2l4.125 4.4z" fill="#1d202b"/></symbol><symbol id="loader"><g data-name="Mask Group 11" transform="translate(-181.697 -4357.486)" clip-path="url(#a)"><g data-name="Ellipse 98" transform="translate(183.525 4359.44)" fill="none" stroke="#1d202b"><ellipse cx="6.35" cy="6.221" rx="6.35" ry="6.221" stroke="none"/><ellipse cx="6.35" cy="6.221" rx="5.85" ry="5.721"/></g></g></symbol><symbol id="logo"><g data-name="k logo" fill="#e3000f"><path d="M127.953 302.202L2.613 141.216 65.631 91.81l59.354 76.235 3.312 4.253 62.675 80.498-63.019 49.406zm113.9-89.297L130.86 170.301 116.515 51.917l62.621-49.094L193.371 120.3l.11.896.842.324 110.156 42.285-62.627 49.101z"/><path d="M128.212 300.093l60.657-47.555-61.755-79.319L65.372 93.92 4.715 141.475l123.497 158.618M241.595 211.2l59.878-46.944-107.687-41.337-1.685-.646-.218-1.794L177.968 5.646l-59.86 46.93 14.135 116.648 109.353 41.977m-113.902 93.11L.511 140.96 65.89 89.702l63.59 81.675 63.593 81.677-65.379 51.257zm114.414-89.7L129.48 171.376 114.925 51.258 180.305 0l14.557 120.117 112.628 43.235-65.38 51.258z" fill="#f2f2f2"/></g></symbol><symbol id="metro"><path d="M9.269 0L7 7.252 4.731 0A6.951 6.951 0 000 6.416 6.631 6.631 0 001.856 11h3.29l.345-1.516c-3.931-1.561-3.188-6.4-1.763-7.188.169.052 2.648 8.668 2.648 8.668h1.247s2.479-8.616 2.648-8.668c1.425.79 2.168 5.627-1.763 7.188L8.853 11h3.29A6.63 6.63 0 0014 6.416 6.951 6.951 0 009.269 0z" fill="#286eb4"/></symbol><symbol id="minus_round"><path data-name="-" d="M4 7.2v1.6h8V7.2zM8 0a8 8 0 108 8 8.013 8.013 0 00-8-8zm0 14.4A6.4 6.4 0 1114.4 8 6.409 6.409 0 018 14.4z" fill="#f9f9f9"/></symbol><symbol id="plus"><text data-name="+" transform="translate(0 26)" fill="#777" font-size="28" font-family="Roboto-Light, Roboto" font-weight="300"><tspan x="0" y="0">+</tspan></text></symbol><symbol id="plus_round"><path data-name="+" d="M8.8 4H7.2v3.2H4v1.6h3.2V12h1.6V8.8H12V7.2H8.8zM8 0a8 8 0 108 8 8.013 8.013 0 00-8-8zm0 14.4A6.4 6.4 0 1114.4 8 6.409 6.409 0 018 14.4z" fill="#f9f9f9"/></symbol><symbol id="quote_left"><text data-name="&#xAB;" transform="translate(0 23)" fill="#c3c3c3" font-size="25" font-family="Roboto-Regular, Roboto"><tspan x="0" y="0">&#xAB;</tspan></text></symbol><symbol id="quote_right"><text data-name="&#xAB;" transform="matrix(-1 0 0 1 12 23)" fill="#c3c3c3" font-size="25" font-family="Roboto-Regular, Roboto"><tspan x="0" y="0">&#xAB;</tspan></text></symbol><symbol id="star"><path data-name="Path 836" d="M8 12.859L12.944 16l-1.312-5.92L16 6.1l-5.752-.514L8 0 5.752 5.583 0 6.1l4.368 3.98L3.056 16z" fill="#f9f9f9"/></symbol><symbol id="view_list"><path data-name="Path 837" d="M0 10.286h4.706V5.714H0zM0 16h4.706v-4.571H0zM0 4.571h4.706V0H0zm5.882 5.714H20V5.714H5.882zm0 5.714H20v-4.57H5.882zm0-16v4.572H20V0z" fill="#000bb3"/></symbol><symbol id="view_plitka"><path data-name="wiew 1" d="M0 6.923h5.882V0H0zM0 15h5.882V8.077H0zm7.059 0h5.882V8.077H7.059zm7.059 0H20V8.077h-5.882zM7.059 6.923h5.882V0H7.059zM14.118 0v6.923H20V0z" fill="#9c9c9c"/></symbol><symbol id="way"><path d="M16.071 0l-4.018 4.082h3.013v7.143a2.009 2.009 0 11-4.018 0V4.082a4.018 4.018 0 10-8.036 0v7.143H0l4.018 4.082 4.018-4.082H5.022V4.082a2.009 2.009 0 114.018 0v7.143a4.018 4.018 0 108.036 0V4.082h3.013z" fill="#f9f9f9"/></symbol><symbol id="x_mark"><path data-name="close / delete" d="M.897 8l-.9-.9 3.1-3.1-3.1-3.094.9-.9 3.1 3.1 3.1-3.1.9.9-3.1 3.1 3.1 3.1-.9.9-3.1-3.1z" fill="#777"/></symbol><symbol id="x_mark_bold"><text data-name="+" transform="rotate(45 -13.097 9.424)" fill="#000669" font-size="18" font-family="Roboto-Light, Roboto" font-weight="300"><tspan x="0" y="0">+</tspan></text></symbol><symbol id="&#x441;heck_blue"><path d="M0 7.497l1.494-1.512L4.5 8.997l9-9L15 1.491 4.5 11.997z" fill="#000bb3"/></symbol><symbol id="&#x441;heck_grey"><path d="M0 7.497l1.494-1.512L4.5 8.997l9-9L15 1.491 4.5 11.997z" fill="#bbb"/></symbol><symbol id="&#x441;heck_white"><path d="M0 7.497l1.494-1.512L4.5 8.997l9-9L15 1.491 4.5 11.997z" fill="#fff"/></symbol></svg>