<svg xmlns="http://www.w3.org/2000/svg"><defs><clipPath id="a"><path data-name="Path 14474" d="M-21292.123-3066.339v-8.175h-8.18v16h16v-7.824h-7.82" transform="translate(21482 7432)" fill="none"/></clipPath></defs><symbol id="arrow_left"><path data-name="arrow l" d="M.511 16.5L16.5.5.511 16.5.5 16.486l.011.014-.011.01.011-.01 15.989 16z" fill="none" stroke="#bbb" stroke-linecap="round" stroke-linejoin="round"/></symbol><symbol id="arrow_right"><path data-name="arrow r" d="M16.489 16.504L.5.504l15.989 16 .011-.014-.011.014.011.01-.011-.01-15.989 16z" fill="none" stroke="#bbb" stroke-linecap="round" stroke-linejoin="round"/></symbol><symbol id="bus" viewBox="0 0 512 512"><path fill="#777" d="M488 128h-8V80c0-44.8-99.2-80-224-80S32 35.2 32 80v48h-8c-13.25 0-24 10.74-24 24v80c0 13.25 10.75 24 24 24h8v160c0 17.67 14.33 32 32 32v32c0 17.67 14.33 32 32 32h32c17.67 0 32-14.33 32-32v-32h192v32c0 17.67 14.33 32 32 32h32c17.67 0 32-14.33 32-32v-32h6.4c16 0 25.6-12.8 25.6-25.6V256h8c13.25 0 24-10.75 24-24v-80c0-13.26-10.75-24-24-24zM112 400c-17.67 0-32-14.33-32-32s14.33-32 32-32 32 14.33 32 32-14.33 32-32 32zm16-112c-17.67 0-32-14.33-32-32V128c0-17.67 14.33-32 32-32h256c17.67 0 32 14.33 32 32v128c0 17.67-14.33 32-32 32H128zm272 112c-17.67 0-32-14.33-32-32s14.33-32 32-32 32 14.33 32 32-14.33 32-32 32z"/></symbol><symbol id="check_blue"><path d="M0 7.497l1.494-1.512L4.5 8.997l9-9L15 1.491 4.5 11.997z" fill="#000bb3"/></symbol><symbol id="check_grey"><path d="M0 7.497l1.494-1.512L4.5 8.997l9-9L15 1.491 4.5 11.997z" fill="#bbb"/></symbol><symbol id="check_white"><path d="M0 7.497l1.494-1.512L4.5 8.997l9-9L15 1.491 4.5 11.997z" fill="#fff"/></symbol><symbol id="compas"><g data-name="South North West East"><g data-name="Group 136"><g data-name="Group 132"><path data-name="Path 14043" d="M36.084 34.71l16.109-22.409-15.103 26.16-1.006-3.75" fill="#ebebeb"/><path data-name="Path 14044" d="M40.84 37.456l11.353-25.155-15.103 26.16 3.75-1.005" fill="#bbb"/></g><g data-name="Group 134"><path data-name="Path 14043" d="M40.604 37.17L63.012 53.28l-26.16-15.103 3.752-1.006" fill="#ebebeb"/><path data-name="Path 14044" d="M37.858 41.927l25.154 11.352-26.16-15.103 1.006 3.75" fill="#bbb"/></g><g data-name="Group 135"><path data-name="Path 14043" d="M36.45 34.772L11.296 23.421l26.16 15.103-1.006-3.752" fill="#ebebeb"/><path data-name="Path 14044" d="M33.704 39.529L11.296 23.42l26.16 15.103-3.752 1.005" fill="#bbb"/></g><g data-name="Group 133"><path data-name="Path 14043" d="M33.467 39.244L22.115 64.398l15.103-26.16-3.751 1.006" fill="#ebebeb"/><path data-name="Path 14044" d="M38.223 41.99L22.115 64.398l15.103-26.16 1.005 3.752" fill="#bbb"/></g></g><text transform="rotate(30 8.894 97.833)" fill="#707070" font-size="11" font-family="HelveticaNeue, Helvetica Neue"><tspan x="0" y="0">S</tspan></text><text transform="rotate(30 -38.599 12.344)" fill="#707070" font-size="11" font-family="HelveticaNeue, Helvetica Neue"><tspan x="0" y="0">W</tspan></text><text transform="rotate(30 -125.354 61.438)" fill="#707070" font-size="11" font-family="HelveticaNeue, Helvetica Neue"><tspan x="0" y="0">N</tspan></text><text transform="rotate(30 -74.961 142.6)" fill="#707070" font-size="11" font-family="HelveticaNeue, Helvetica Neue"><tspan x="0" y="0">E</tspan></text></g></symbol><symbol id="doc"><path d="M7.5 0h-6A1.551 1.551 0 00.008 1.6L0 14.4A1.551 1.551 0 001.493 16H10.5a1.557 1.557 0 001.5-1.6V4.8zM9 12.8H3v-1.6h6zm0-3.2H3V8h6zm-2.25-4V1.2l4.125 4.4z" fill="#1d202b"/></symbol><symbol id="eye_grey" viewBox="0 0 564 512"><path fill="#777" d="M288 144a110.94 110.94 0 00-31.24 5 55.4 55.4 0 017.24 27 56 56 0 01-56 56 55.4 55.4 0 01-27-7.24A111.71 111.71 0 10288 144zm284.52 97.4C518.29 135.59 410.93 64 288 64S57.68 135.64 3.48 241.41a32.35 32.35 0 000 29.19C57.71 376.41 165.07 448 288 448s230.32-71.64 284.52-177.41a32.35 32.35 0 000-29.19zM288 400c-98.65 0-189.09-55-237.93-144C98.91 167 189.34 112 288 112s189.09 55 237.93 144C477.1 345 386.66 400 288 400z"/></symbol><symbol id="like_grey" viewBox="0 0 564 512"><path fill="#777" d="M466.27 286.69C475.04 271.84 480 256 480 236.85c0-44.015-37.218-85.58-85.82-85.58H357.7c4.92-12.81 8.85-28.13 8.85-46.54C366.55 31.936 328.86 0 271.28 0c-61.607 0-58.093 94.933-71.76 108.6-22.747 22.747-49.615 66.447-68.76 83.4H32c-17.673 0-32 14.327-32 32v240c0 17.673 14.327 32 32 32h64c14.893 0 27.408-10.174 30.978-23.95 44.509 1.001 75.06 39.94 177.802 39.94 7.22 0 15.22.01 22.22.01 77.117 0 111.986-39.423 112.94-95.33 13.319-18.425 20.299-43.122 17.34-66.99 9.854-18.452 13.664-40.343 8.99-62.99zm-61.75 53.83c12.56 21.13 1.26 49.41-13.94 57.57 7.7 48.78-17.608 65.9-53.12 65.9h-37.82c-71.639 0-118.029-37.82-171.64-37.82V240h10.92c28.36 0 67.98-70.89 94.54-97.46 28.36-28.36 18.91-75.63 37.82-94.54 47.27 0 47.27 32.98 47.27 56.73 0 39.17-28.36 56.72-28.36 94.54h103.99c21.11 0 37.73 18.91 37.82 37.82.09 18.9-12.82 37.81-22.27 37.81 13.489 14.555 16.371 45.236-5.21 65.62zM88 432c0 13.255-10.745 24-24 24s-24-10.745-24-24 10.745-24 24-24 24 10.745 24 24z"/></symbol><symbol id="loader"><g data-name="Mask Group 11" transform="translate(-181.697 -4357.486)" clip-path="url(#a)"><g data-name="Ellipse 98" transform="translate(183.525 4359.44)" fill="none" stroke="#1d202b"><ellipse cx="6.35" cy="6.221" rx="6.35" ry="6.221" stroke="none"/><ellipse cx="6.35" cy="6.221" rx="5.85" ry="5.721"/></g></g></symbol><symbol id="logo"><g data-name="k logo" fill="#e3000f"><path d="M127.953 302.202L2.613 141.216 65.631 91.81l59.354 76.235 3.312 4.253 62.675 80.498-63.019 49.406zm113.9-89.297L130.86 170.301 116.515 51.917l62.621-49.094L193.371 120.3l.11.896.842.324 110.156 42.285-62.627 49.101z"/><path d="M128.212 300.093l60.657-47.555-61.755-79.319L65.372 93.92 4.715 141.475l123.497 158.618M241.595 211.2l59.878-46.944-107.687-41.337-1.685-.646-.218-1.794L177.968 5.646l-59.86 46.93 14.135 116.648 109.353 41.977m-113.902 93.11L.511 140.96 65.89 89.702l63.59 81.675 63.593 81.677-65.379 51.257zm114.414-89.7L129.48 171.376 114.925 51.258 180.305 0l14.557 120.117 112.628 43.235-65.38 51.258z" fill="#f2f2f2"/></g></symbol><symbol id="metro"><path d="M9.269 0L7 7.252 4.731 0A6.951 6.951 0 000 6.416 6.631 6.631 0 001.856 11h3.29l.345-1.516c-3.931-1.561-3.188-6.4-1.763-7.188.169.052 2.648 8.668 2.648 8.668h1.247s2.479-8.616 2.648-8.668c1.425.79 2.168 5.627-1.763 7.188L8.853 11h3.29A6.63 6.63 0 0014 6.416 6.951 6.951 0 009.269 0z" fill="#286eb4"/></symbol><symbol id="metro_blue"><path d="M9.269 0L7 7.252 4.731 0A6.951 6.951 0 000 6.416 6.631 6.631 0 001.856 11h3.29l.345-1.516c-3.931-1.561-3.188-6.4-1.763-7.188.169.052 2.648 8.668 2.648 8.668h1.247s2.479-8.616 2.648-8.668c1.425.79 2.168 5.627-1.763 7.188L8.853 11h3.29A6.63 6.63 0 0014 6.416 6.951 6.951 0 009.269 0z" fill="#0078c9"/></symbol><symbol id="metro_brown"><path d="M9.269 0L7 7.252 4.731 0A6.951 6.951 0 000 6.416 6.631 6.631 0 001.856 11h3.29l.345-1.516c-3.931-1.561-3.188-6.4-1.763-7.188.169.052 2.648 8.668 2.648 8.668h1.247s2.479-8.616 2.648-8.668c1.425.79 2.168 5.627-1.763 7.188L8.853 11h3.29A6.63 6.63 0 0014 6.416 6.951 6.951 0 009.269 0z" fill="#8d5b2d"/></symbol><symbol id="metro_green"><path d="M9.269 0L7 7.252 4.731 0A6.951 6.951 0 000 6.416 6.631 6.631 0 001.856 11h3.29l.345-1.516c-3.931-1.561-3.188-6.4-1.763-7.188.169.052 2.648 8.668 2.648 8.668h1.247s2.479-8.616 2.648-8.668c1.425.79 2.168 5.627-1.763 7.188L8.853 11h3.29A6.63 6.63 0 0014 6.416 6.951 6.951 0 009.269 0z" fill="#009a49"/></symbol><symbol id="metro_grey"><path d="M9.269 0L7 7.252 4.731 0A6.951 6.951 0 000 6.416 6.631 6.631 0 001.856 11h3.29l.345-1.516c-3.931-1.561-3.188-6.4-1.763-7.188.169.052 2.648 8.668 2.648 8.668h1.247s2.479-8.616 2.648-8.668c1.425.79 2.168 5.627-1.763 7.188L8.853 11h3.29A6.63 6.63 0 0014 6.416 6.951 6.951 0 009.269 0z" fill="#999"/></symbol><symbol id="metro_orange"><path d="M9.269 0L7 7.252 4.731 0A6.951 6.951 0 000 6.416 6.631 6.631 0 001.856 11h3.29l.345-1.516c-3.931-1.561-3.188-6.4-1.763-7.188.169.052 2.648 8.668 2.648 8.668h1.247s2.479-8.616 2.648-8.668c1.425.79 2.168 5.627-1.763 7.188L8.853 11h3.29A6.63 6.63 0 0014 6.416 6.951 6.951 0 009.269 0z" fill="#ea7125"/></symbol><symbol id="metro_red"><path d="M9.269 0L7 7.252 4.731 0A6.951 6.951 0 000 6.416 6.631 6.631 0 001.856 11h3.29l.345-1.516c-3.931-1.561-3.188-6.4-1.763-7.188.169.052 2.648 8.668 2.648 8.668h1.247s2.479-8.616 2.648-8.668c1.425.79 2.168 5.627-1.763 7.188L8.853 11h3.29A6.63 6.63 0 0014 6.416 6.951 6.951 0 009.269 0z" fill="#d6083b"/></symbol><symbol id="metro_violet"><path d="M9.269 0L7 7.252 4.731 0A6.951 6.951 0 000 6.416 6.631 6.631 0 001.856 11h3.29l.345-1.516c-3.931-1.561-3.188-6.4-1.763-7.188.169.052 2.648 8.668 2.648 8.668h1.247s2.479-8.616 2.648-8.668c1.425.79 2.168 5.627-1.763 7.188L8.853 11h3.29A6.63 6.63 0 0014 6.416 6.951 6.951 0 009.269 0z" fill="#702785"/></symbol><symbol id="minus_round"><path data-name="-" d="M4 7.2v1.6h8V7.2zM8 0a8 8 0 108 8 8.013 8.013 0 00-8-8zm0 14.4A6.4 6.4 0 1114.4 8 6.409 6.409 0 018 14.4z" fill="#f9f9f9"/></symbol><symbol id="plan"><g data-name="of 16.3" fill="#dff7be"><path d="M0 31.754V0h42.938v7.331a9.04 9.04 0 018.814 9.037v.732h-8.814v14.654z"/><path d="M42.688 31.504V16.848h8.814v-.48a8.74 8.74 0 00-2.503-6.143 8.739 8.739 0 00-6.067-2.644l-.244-.006V.25H.25v31.254h42.438m.25.25H0V0h42.938v7.33a9.04 9.04 0 018.814 9.037v.731h-8.814v14.656z" fill="#777"/></g></symbol><symbol id="plus"><text data-name="+" transform="translate(0 26)" fill="#777" font-size="28" font-family="Roboto-Light, Roboto" font-weight="300"><tspan x="0" y="0">+</tspan></text></symbol><symbol id="plus_round"><path data-name="+" d="M8.8 4H7.2v3.2H4v1.6h3.2V12h1.6V8.8H12V7.2H8.8zM8 0a8 8 0 108 8 8.013 8.013 0 00-8-8zm0 14.4A6.4 6.4 0 1114.4 8 6.409 6.409 0 018 14.4z" fill="#f9f9f9"/></symbol><symbol id="quote_left"><text data-name="&#xAB;" transform="translate(0 23)" fill="#c3c3c3" font-size="25" font-family="Roboto-Regular, Roboto"><tspan x="0" y="0">&#xAB;</tspan></text></symbol><symbol id="quote_right"><text data-name="&#xAB;" transform="matrix(-1 0 0 1 12 23)" fill="#c3c3c3" font-size="25" font-family="Roboto-Regular, Roboto"><tspan x="0" y="0">&#xAB;</tspan></text></symbol><symbol id="star"><path data-name="Path 836" d="M8 12.859L12.944 16l-1.312-5.92L16 6.1l-5.752-.514L8 0 5.752 5.583 0 6.1l4.368 3.98L3.056 16z" fill="#f9f9f9"/></symbol><symbol id="view_list"><path data-name="Path 837" d="M0 10.286h4.706V5.714H0zM0 16h4.706v-4.571H0zM0 4.571h4.706V0H0zm5.882 5.714H20V5.714H5.882zm0 5.714H20v-4.57H5.882zm0-16v4.572H20V0z" fill="#000bb3"/></symbol><symbol id="view_plitka"><path data-name="wiew 1" d="M0 6.923h5.882V0H0zM0 15h5.882V8.077H0zm7.059 0h5.882V8.077H7.059zm7.059 0H20V8.077h-5.882zM7.059 6.923h5.882V0H7.059zM14.118 0v6.923H20V0z" fill="#9c9c9c"/></symbol><symbol id="walking" viewBox="0 0 320 512"><path fill="#777" d="M208 96c26.5 0 48-21.5 48-48S234.5 0 208 0s-48 21.5-48 48 21.5 48 48 48zm94.5 149.1l-23.3-11.8-9.7-29.4c-14.7-44.6-55.7-75.8-102.2-75.9-36-.1-55.9 10.1-93.3 25.2-21.6 8.7-39.3 25.2-49.7 46.2L17.6 213c-7.8 15.8-1.5 35 14.2 42.9 15.6 7.9 34.6 1.5 42.5-14.3L81 228c3.5-7 9.3-12.5 16.5-15.4l26.8-10.8-15.2 60.7c-5.2 20.8.4 42.9 14.9 58.8l59.9 65.4c7.2 7.9 12.3 17.4 14.9 27.7l18.3 73.3c4.3 17.1 21.7 27.6 38.8 23.3 17.1-4.3 27.6-21.7 23.3-38.8l-22.2-89c-2.6-10.3-7.7-19.9-14.9-27.7l-45.5-49.7 17.2-68.7 5.5 16.5c5.3 16.1 16.7 29.4 31.7 37l23.3 11.8c15.6 7.9 34.6 1.5 42.5-14.3 7.7-15.7 1.4-35.1-14.3-43zM73.6 385.8c-3.2 8.1-8 15.4-14.2 21.5l-50 50.1c-12.5 12.5-12.5 32.8 0 45.3s32.7 12.5 45.2 0l59.4-59.4c6.1-6.1 10.9-13.4 14.2-21.5l13.5-33.8c-55.3-60.3-38.7-41.8-47.4-53.7l-20.7 51.5z"/></symbol><symbol id="way"><path d="M16.071 0l-4.018 4.082h3.013v7.143a2.009 2.009 0 11-4.018 0V4.082a4.018 4.018 0 10-8.036 0v7.143H0l4.018 4.082 4.018-4.082H5.022V4.082a2.009 2.009 0 114.018 0v7.143a4.018 4.018 0 108.036 0V4.082h3.013z" fill="#f9f9f9"/></symbol><symbol id="x_mark"><path data-name="close / delete" d="M.897 8l-.9-.9 3.1-3.1-3.1-3.094.9-.9 3.1 3.1 3.1-3.1.9.9-3.1 3.1 3.1 3.1-.9.9-3.1-3.1z" fill="#777"/></symbol><symbol id="x_mark_bold"><text data-name="+" transform="rotate(45 -13.097 9.424)" fill="#000669" font-size="18" font-family="Roboto-Light, Roboto" font-weight="300"><tspan x="0" y="0">+</tspan></text></symbol><symbol id="&#x441;heck_blue"><path d="M0 7.497l1.494-1.512L4.5 8.997l9-9L15 1.491 4.5 11.997z" fill="#000bb3"/></symbol><symbol id="&#x441;heck_grey"><path d="M0 7.497l1.494-1.512L4.5 8.997l9-9L15 1.491 4.5 11.997z" fill="#bbb"/></symbol><symbol id="&#x441;heck_white"><path d="M0 7.497l1.494-1.512L4.5 8.997l9-9L15 1.491 4.5 11.997z" fill="#fff"/></symbol></svg>