<svg xmlns="http://www.w3.org/2000/svg" width="51.752" height="31.754" viewBox="0 0 51.752 31.754">
  <g id="of_16.3" data-name="of 16.3" fill="#dff7be">
    <path d="M0,31.754V0H42.938V7.331a9.04,9.04,0,0,1,8.814,9.037V17.1H42.938V31.754Z" stroke="none"/>
    <path d="M 42.6880989074707 31.5038013458252 L 42.6880989074707 17.09819984436035 L 42.6880989074707 16.84819984436035 L 42.9380989074707 16.84819984436035 L 51.50180053710938 16.84819984436035 L 51.50180053710938 16.36740112304688 C 51.50180053710938 14.05794048309326 50.61299133300781 11.87650108337402 48.99909210205078 10.22494029998779 C 47.38790893554688 8.576140403747559 45.23321914672852 7.637000560760498 42.93196868896484 7.58051061630249 L 42.6880989074707 7.574530601501465 L 42.6880989074707 7.330590724945068 L 42.6880989074707 0.2500006854534149 L 0.2500002682209015 0.2500006854534149 L 0.2500002682209015 31.5038013458252 L 42.6880989074707 31.5038013458252 M 42.9380989074707 31.7538013458252 L 2.685546860448085e-07 31.7538013458252 L 2.685546860448085e-07 6.729126198479207e-07 L 0.0009002685546875 6.729126198479207e-07 L 42.9380989074707 6.729126198479207e-07 L 42.9380989074707 7.330590724945068 C 47.82596206665039 7.450560569763184 51.75180053710938 11.45067024230957 51.75180053710938 16.36740112304688 L 51.75180053710938 17.09819984436035 L 42.9380989074707 17.09819984436035 L 42.9380989074707 31.7538013458252 Z" stroke="none" fill="#777"/>
  </g>
</svg>
