<svg xmlns="http://www.w3.org/2000/svg" width="14" height="11" viewBox="0 0 14 11">
    <defs>
        <style>
            .cls-1{fill:#e6321e}
        </style>
    </defs>
    <g id="saint-petersburg-metro-logo" transform="translate(0 -10.642)">
        <path id="Path_471" d="M9.27 10.642L7 17.894l-2.269-7.252A6.951 6.951 0 0 0 0 17.058a6.631 6.631 0 0 0 1.856 4.584h3.29l.345-1.516c-3.931-1.561-3.188-6.4-1.763-7.188.169.052 2.648 8.668 2.648 8.668h1.247s2.479-8.616 2.648-8.668c1.425.79 2.168 5.627-1.763 7.188l.345 1.516h3.29A6.63 6.63 0 0 0 14 17.058a6.951 6.951 0 0 0-4.73-6.416z" class="cls-1" data-name="Path 471"/>
    </g>
</svg>
