<svg xmlns="http://www.w3.org/2000/svg" width="308" height="304.312" viewBox="0 0 308 304.312">
    <defs>
        <style>
            .cls-1{fill:#e3000f}.cls-2,.cls-3{stroke:none}.cls-3{fill:#f2f2f2}
        </style>
    </defs>
    <g id="k_logo" class="cls-1" data-name="k logo">
        <path d="M1.503 205.907L1.846 1.882l80.076-.135-.163 96.616-.009 5.39-.171 102.02-80.076.134zm144.73-.243L85 103.758l61.58-102.12 79.571-.133-61.108 101.337-.466.773.465.774 60.771 101.14-79.581.135z" class="cls-2" transform="rotate(-38 204.558 70.435)"/>
        <path d="M3.005 204.405l77.076-.13.17-100.524.168-100.501-77.076.13-.338 201.025m144.075-.243l76.086-.128-59.409-98.873-.93-1.547.933-1.547L223.493 3.01l-76.064.128L86.752 103.76l60.328 100.403M0 207.41L.348.385l83.076-.14-.174 103.511-.174 103.514L0 207.41zm145.385-.245L83.25 103.756 145.733.14 228.811 0 166.33 103.616l62.134 103.41-83.078.14z" class="cls-3" transform="rotate(-38 204.558 70.435)"/>
    </g>
</svg>
